<?xml version="1.0" encoding="utf-8"?>
<!-- Generator: Adobe Illustrator 28.3.0, SVG Export Plug-In . SVG Version: 6.00 Build 0)  -->
<svg version="1.1" xmlns="http://www.w3.org/2000/svg" xmlns:xlink="http://www.w3.org/1999/xlink" x="0px" y="0px"
	 viewBox="0 0 136.7 137.4" style="enable-background:new 0 0 136.7 137.4;" xml:space="preserve">
<style type="text/css">
	.st0{display:none;}
	.st1{display:inline;fill:#D6BE99;}
	.st2{fill:#FFFFFF;}
</style>
<g id="Layer_1" class="st0">
	
		<image style="display:inline;overflow:visible;" width="1366" height="768" xlink:href="../Downloads/2024 CHRISTMAS.png"  transform="matrix(0.75 0 0 0.75 -192.5455 -30.4609)">
	</image>
</g>
<g id="Layer_2" class="st0">
	<polygon class="st1" points="68.6,0 67.2,66 43.9,45.9 65.5,68.2 0,69.3 65,70.8 42.8,94.6 67,72.4 68.6,137.4 70,72.7 91.6,93.3 
		71.8,71.1 137.4,69.6 71.8,68 93,45.2 69.9,66.1 	"/>
</g>
<g id="Layer_3">
	<polygon class="st2" points="68.6,0 67.2,66 43.9,45.9 65.5,68.2 0,69.3 65,70.8 42.8,94.6 67,72.4 68.6,137.4 70,72.7 91.6,93.3 
		71.8,71.1 137.4,69.6 71.8,68 93,45.2 69.9,66.1 	"/>
</g>
</svg>
